<svg xmlns="http://www.w3.org/2000/svg" viewBox="0 0 1024 1024" shape-rendering="crispEdges">
  <rect width="1024" height="1024" fill="#222222"/>

  <!-- Red -->
  <path d="M128 640 A384 384 0 0 1 896 640 L768 640 A256 256 0 0 0 256 640 Z" fill="#ff2a00"/>

  <!-- Yellow -->
  <path d="M192 640 A320 320 0 0 1 832 640 L704 640 A192 192 0 0 0 320 640 Z" fill="#ffd000"/>

  <!-- Green -->
  <path d="M256 640 A256 256 0 0 1 768 640 L640 640 A128 128 0 0 0 384 640 Z" fill="#39d100"/>

  <!-- Blue -->
  <path d="M320 640 A192 192 0 0 1 704 640 L576 640 A64 64 0 0 0 448 640 Z" fill="#3aa0d8"/>
</svg>